<mxfile host="app.diagrams.net" modified="2024-03-07T14:38:40.407Z" agent="Mozilla/5.0 (X11; Linux x86_64; rv:123.0) Gecko/20100101 Firefox/123.0" etag="A6-3yCbYhMmLs7ItEkaD" version="23.1.2" type="github">
  <diagram name="Page-1" id="ag8jE-lq5qi5-nVYcfrn">
    <mxGraphModel dx="186" dy="476" grid="1" gridSize="10" guides="1" tooltips="1" connect="1" arrows="1" fold="1" page="1" pageScale="1" pageWidth="850" pageHeight="1100" math="0" shadow="0">
      <root>
        <mxCell id="0" />
        <mxCell id="1" parent="0" />
        <mxCell id="osP13ygEKxIuV2dcWn0y-1" value="" style="ellipse;whiteSpace=wrap;html=1;" vertex="1" parent="1">
          <mxGeometry x="330" y="60" width="120" height="80" as="geometry" />
        </mxCell>
      </root>
    </mxGraphModel>
  </diagram>
</mxfile>
